<mxfile host="app.diagrams.net" modified="2022-05-18T16:32:06.929Z" agent="5.0 (Windows NT 10.0; WOW64) AppleWebKit/537.36 (KHTML, like Gecko) Chrome/101.0.4951.54 Safari/537.36" etag="G4amWRUSBqCTN6mq0--G" version="18.0.7" type="github">
  <diagram id="lrlHoiw0rF8cpUv5qfjf" name="Page-1">
    <mxGraphModel dx="987" dy="1778" grid="1" gridSize="10" guides="1" tooltips="1" connect="1" arrows="1" fold="1" page="1" pageScale="1" pageWidth="827" pageHeight="1169" math="0" shadow="0">
      <root>
        <mxCell id="0" />
        <mxCell id="1" parent="0" />
        <mxCell id="OOd39kcZihvx2xBCQOC6-2" value="СК" style="rounded=0;whiteSpace=wrap;html=1;" vertex="1" parent="1">
          <mxGeometry x="169" y="35" width="70" height="80" as="geometry" />
        </mxCell>
        <mxCell id="OOd39kcZihvx2xBCQOC6-3" value="0" style="text;html=1;align=center;verticalAlign=middle;resizable=0;points=[];autosize=1;strokeColor=none;fillColor=none;" vertex="1" parent="1">
          <mxGeometry x="169" y="35" width="20" height="20" as="geometry" />
        </mxCell>
        <mxCell id="OOd39kcZihvx2xBCQOC6-4" value="4" style="text;html=1;align=center;verticalAlign=middle;resizable=0;points=[];autosize=1;strokeColor=none;fillColor=none;" vertex="1" parent="1">
          <mxGeometry x="169" y="95" width="20" height="20" as="geometry" />
        </mxCell>
        <mxCell id="OOd39kcZihvx2xBCQOC6-8" value="" style="strokeWidth=2;html=1;shape=mxgraph.flowchart.loop_limit;whiteSpace=wrap;rotation=90;" vertex="1" parent="1">
          <mxGeometry x="39" y="50" width="100" height="50" as="geometry" />
        </mxCell>
        <mxCell id="OOd39kcZihvx2xBCQOC6-9" value="SM1&lt;br&gt;" style="text;html=1;align=center;verticalAlign=middle;resizable=0;points=[];autosize=1;strokeColor=none;fillColor=none;" vertex="1" parent="1">
          <mxGeometry x="69" y="65" width="40" height="20" as="geometry" />
        </mxCell>
        <mxCell id="OOd39kcZihvx2xBCQOC6-10" value="" style="endArrow=none;html=1;rounded=0;exitX=0.5;exitY=0;exitDx=0;exitDy=0;exitPerimeter=0;entryX=0;entryY=0.5;entryDx=0;entryDy=0;entryPerimeter=0;" edge="1" parent="1" source="OOd39kcZihvx2xBCQOC6-8" target="OOd39kcZihvx2xBCQOC6-2">
          <mxGeometry width="50" height="50" relative="1" as="geometry">
            <mxPoint x="369" y="215" as="sourcePoint" />
            <mxPoint x="419" y="165" as="targetPoint" />
          </mxGeometry>
        </mxCell>
        <mxCell id="OOd39kcZihvx2xBCQOC6-14" value="" style="endArrow=none;html=1;rounded=0;exitX=1;exitY=0.5;exitDx=0;exitDy=0;" edge="1" parent="1" source="OOd39kcZihvx2xBCQOC6-2">
          <mxGeometry width="50" height="50" relative="1" as="geometry">
            <mxPoint x="369" y="215" as="sourcePoint" />
            <mxPoint x="279" y="75" as="targetPoint" />
          </mxGeometry>
        </mxCell>
        <mxCell id="OOd39kcZihvx2xBCQOC6-15" value="" style="endArrow=none;html=1;rounded=0;" edge="1" parent="1">
          <mxGeometry width="50" height="50" relative="1" as="geometry">
            <mxPoint x="279" y="75" as="sourcePoint" />
            <mxPoint x="279" y="-5" as="targetPoint" />
          </mxGeometry>
        </mxCell>
        <mxCell id="OOd39kcZihvx2xBCQOC6-16" value="" style="endArrow=none;html=1;rounded=0;" edge="1" parent="1">
          <mxGeometry width="50" height="50" relative="1" as="geometry">
            <mxPoint x="279" y="-5" as="sourcePoint" />
            <mxPoint x="39" y="-5" as="targetPoint" />
          </mxGeometry>
        </mxCell>
        <mxCell id="OOd39kcZihvx2xBCQOC6-18" value="" style="edgeStyle=segmentEdgeStyle;endArrow=classic;html=1;rounded=0;entryX=0.248;entryY=0.996;entryDx=0;entryDy=0;entryPerimeter=0;" edge="1" parent="1" target="OOd39kcZihvx2xBCQOC6-8">
          <mxGeometry width="50" height="50" relative="1" as="geometry">
            <mxPoint x="39" y="-5" as="sourcePoint" />
            <mxPoint x="89" y="-65" as="targetPoint" />
            <Array as="points">
              <mxPoint x="39" y="50" />
            </Array>
          </mxGeometry>
        </mxCell>
        <mxCell id="OOd39kcZihvx2xBCQOC6-19" value="" style="endArrow=none;html=1;rounded=0;fontFamily=Helvetica;fontSize=18;" edge="1" parent="1">
          <mxGeometry width="50" height="50" relative="1" as="geometry">
            <mxPoint x="263" y="85" as="sourcePoint" />
            <mxPoint x="273" y="65" as="targetPoint" />
          </mxGeometry>
        </mxCell>
        <mxCell id="OOd39kcZihvx2xBCQOC6-20" value="&lt;font style=&quot;font-size: 14px;&quot;&gt;5&lt;/font&gt;" style="text;html=1;align=center;verticalAlign=middle;resizable=0;points=[];autosize=1;strokeColor=none;fillColor=none;fontSize=18;fontFamily=Helvetica;" vertex="1" parent="1">
          <mxGeometry x="249" y="51.5" width="20" height="30" as="geometry" />
        </mxCell>
        <mxCell id="OOd39kcZihvx2xBCQOC6-22" value="&lt;b&gt;RIA&lt;/b&gt;" style="rounded=0;whiteSpace=wrap;html=1;" vertex="1" parent="1">
          <mxGeometry x="350" y="15" width="70" height="80" as="geometry" />
        </mxCell>
        <mxCell id="OOd39kcZihvx2xBCQOC6-23" value="0" style="text;html=1;align=center;verticalAlign=middle;resizable=0;points=[];autosize=1;strokeColor=none;fillColor=none;" vertex="1" parent="1">
          <mxGeometry x="350" y="15" width="20" height="20" as="geometry" />
        </mxCell>
        <mxCell id="OOd39kcZihvx2xBCQOC6-24" value="4" style="text;html=1;align=center;verticalAlign=middle;resizable=0;points=[];autosize=1;strokeColor=none;fillColor=none;" vertex="1" parent="1">
          <mxGeometry x="350" y="75" width="20" height="20" as="geometry" />
        </mxCell>
        <mxCell id="OOd39kcZihvx2xBCQOC6-25" value="РК3" style="rounded=0;whiteSpace=wrap;html=1;" vertex="1" parent="1">
          <mxGeometry x="120" y="230" width="60" height="60" as="geometry" />
        </mxCell>
        <mxCell id="OOd39kcZihvx2xBCQOC6-26" value="0" style="text;html=1;align=center;verticalAlign=middle;resizable=0;points=[];autosize=1;strokeColor=none;fillColor=none;" vertex="1" parent="1">
          <mxGeometry x="160" y="230" width="20" height="20" as="geometry" />
        </mxCell>
        <mxCell id="OOd39kcZihvx2xBCQOC6-27" value="3" style="text;html=1;align=center;verticalAlign=middle;resizable=0;points=[];autosize=1;strokeColor=none;fillColor=none;" vertex="1" parent="1">
          <mxGeometry x="160" y="270" width="20" height="20" as="geometry" />
        </mxCell>
        <mxCell id="OOd39kcZihvx2xBCQOC6-28" value="РК2" style="rounded=0;whiteSpace=wrap;html=1;" vertex="1" parent="1">
          <mxGeometry x="120" y="290" width="60" height="60" as="geometry" />
        </mxCell>
        <mxCell id="OOd39kcZihvx2xBCQOC6-29" value="4" style="text;html=1;align=center;verticalAlign=middle;resizable=0;points=[];autosize=1;strokeColor=none;fillColor=none;" vertex="1" parent="1">
          <mxGeometry x="160" y="290" width="20" height="20" as="geometry" />
        </mxCell>
        <mxCell id="OOd39kcZihvx2xBCQOC6-30" value="7" style="text;html=1;align=center;verticalAlign=middle;resizable=0;points=[];autosize=1;strokeColor=none;fillColor=none;" vertex="1" parent="1">
          <mxGeometry x="160" y="330" width="20" height="20" as="geometry" />
        </mxCell>
        <mxCell id="OOd39kcZihvx2xBCQOC6-31" value="РК1" style="rounded=0;whiteSpace=wrap;html=1;" vertex="1" parent="1">
          <mxGeometry x="120" y="350" width="60" height="60" as="geometry" />
        </mxCell>
        <mxCell id="OOd39kcZihvx2xBCQOC6-32" value="8" style="text;html=1;align=center;verticalAlign=middle;resizable=0;points=[];autosize=1;strokeColor=none;fillColor=none;" vertex="1" parent="1">
          <mxGeometry x="160" y="350" width="20" height="20" as="geometry" />
        </mxCell>
        <mxCell id="OOd39kcZihvx2xBCQOC6-33" value="11" style="text;html=1;align=center;verticalAlign=middle;resizable=0;points=[];autosize=1;strokeColor=none;fillColor=none;" vertex="1" parent="1">
          <mxGeometry x="155" y="390" width="30" height="20" as="geometry" />
        </mxCell>
        <mxCell id="OOd39kcZihvx2xBCQOC6-34" value="BR1" style="rounded=0;whiteSpace=wrap;html=1;" vertex="1" parent="1">
          <mxGeometry x="850" y="86.5" width="60" height="70" as="geometry" />
        </mxCell>
        <mxCell id="OOd39kcZihvx2xBCQOC6-35" value="0" style="text;html=1;align=center;verticalAlign=middle;resizable=0;points=[];autosize=1;strokeColor=none;fillColor=none;" vertex="1" parent="1">
          <mxGeometry x="850" y="86.5" width="20" height="20" as="geometry" />
        </mxCell>
        <mxCell id="OOd39kcZihvx2xBCQOC6-36" value="3" style="text;html=1;align=center;verticalAlign=middle;resizable=0;points=[];autosize=1;strokeColor=none;fillColor=none;" vertex="1" parent="1">
          <mxGeometry x="850" y="136.5" width="20" height="20" as="geometry" />
        </mxCell>
        <mxCell id="OOd39kcZihvx2xBCQOC6-38" value="BR2" style="rounded=0;whiteSpace=wrap;html=1;" vertex="1" parent="1">
          <mxGeometry x="850" y="290" width="60" height="70" as="geometry" />
        </mxCell>
        <mxCell id="OOd39kcZihvx2xBCQOC6-39" value="0" style="text;html=1;align=center;verticalAlign=middle;resizable=0;points=[];autosize=1;strokeColor=none;fillColor=none;" vertex="1" parent="1">
          <mxGeometry x="850" y="290" width="20" height="20" as="geometry" />
        </mxCell>
        <mxCell id="OOd39kcZihvx2xBCQOC6-40" value="3" style="text;html=1;align=center;verticalAlign=middle;resizable=0;points=[];autosize=1;strokeColor=none;fillColor=none;" vertex="1" parent="1">
          <mxGeometry x="850" y="340" width="20" height="20" as="geometry" />
        </mxCell>
        <mxCell id="OOd39kcZihvx2xBCQOC6-41" value="" style="shape=crossbar;whiteSpace=wrap;html=1;rounded=1;direction=south;" vertex="1" parent="1">
          <mxGeometry x="190" y="390" width="10" height="20" as="geometry" />
        </mxCell>
        <mxCell id="OOd39kcZihvx2xBCQOC6-42" value="10" style="text;html=1;align=center;verticalAlign=middle;resizable=0;points=[];autosize=1;strokeColor=none;fillColor=none;" vertex="1" parent="1">
          <mxGeometry x="195" y="380" width="30" height="20" as="geometry" />
        </mxCell>
        <mxCell id="OOd39kcZihvx2xBCQOC6-43" value="11" style="text;html=1;align=center;verticalAlign=middle;resizable=0;points=[];autosize=1;strokeColor=none;fillColor=none;" vertex="1" parent="1">
          <mxGeometry x="195" y="400" width="30" height="20" as="geometry" />
        </mxCell>
        <mxCell id="OOd39kcZihvx2xBCQOC6-44" value="" style="endArrow=classic;html=1;rounded=0;exitX=0.047;exitY=-0.03;exitDx=0;exitDy=0;exitPerimeter=0;" edge="1" parent="1" source="OOd39kcZihvx2xBCQOC6-43">
          <mxGeometry width="50" height="50" relative="1" as="geometry">
            <mxPoint x="390" y="410" as="sourcePoint" />
            <mxPoint x="260" y="399" as="targetPoint" />
          </mxGeometry>
        </mxCell>
        <mxCell id="OOd39kcZihvx2xBCQOC6-45" value="&lt;b&gt;COP в БМК&lt;/b&gt;" style="text;html=1;align=center;verticalAlign=middle;resizable=0;points=[];autosize=1;strokeColor=none;fillColor=none;" vertex="1" parent="1">
          <mxGeometry x="225" y="400" width="80" height="20" as="geometry" />
        </mxCell>
        <mxCell id="OOd39kcZihvx2xBCQOC6-46" value="" style="shape=crossbar;whiteSpace=wrap;html=1;rounded=1;direction=south;" vertex="1" parent="1">
          <mxGeometry x="190" y="300" width="10" height="85" as="geometry" />
        </mxCell>
        <mxCell id="OOd39kcZihvx2xBCQOC6-48" value="9" style="text;html=1;align=center;verticalAlign=middle;resizable=0;points=[];autosize=1;strokeColor=none;fillColor=none;" vertex="1" parent="1">
          <mxGeometry x="200" y="365" width="20" height="20" as="geometry" />
        </mxCell>
        <mxCell id="OOd39kcZihvx2xBCQOC6-49" value="5" style="text;html=1;align=center;verticalAlign=middle;resizable=0;points=[];autosize=1;strokeColor=none;fillColor=none;" vertex="1" parent="1">
          <mxGeometry x="195" y="300" width="20" height="20" as="geometry" />
        </mxCell>
        <mxCell id="OOd39kcZihvx2xBCQOC6-53" value="" style="endArrow=none;html=1;rounded=0;exitX=0.472;exitY=0.516;exitDx=0;exitDy=0;exitPerimeter=0;" edge="1" parent="1" source="OOd39kcZihvx2xBCQOC6-46">
          <mxGeometry width="50" height="50" relative="1" as="geometry">
            <mxPoint x="194.76999999999998" y="340.715" as="sourcePoint" />
            <mxPoint x="210" y="340" as="targetPoint" />
          </mxGeometry>
        </mxCell>
        <mxCell id="OOd39kcZihvx2xBCQOC6-54" value="" style="endArrow=none;html=1;rounded=0;" edge="1" parent="1">
          <mxGeometry width="50" height="50" relative="1" as="geometry">
            <mxPoint x="210" y="340" as="sourcePoint" />
            <mxPoint x="210" y="200" as="targetPoint" />
          </mxGeometry>
        </mxCell>
        <mxCell id="OOd39kcZihvx2xBCQOC6-55" value="" style="endArrow=none;html=1;rounded=0;" edge="1" parent="1">
          <mxGeometry width="50" height="50" relative="1" as="geometry">
            <mxPoint x="210" y="200" as="sourcePoint" />
            <mxPoint x="40" y="200" as="targetPoint" />
          </mxGeometry>
        </mxCell>
        <mxCell id="OOd39kcZihvx2xBCQOC6-56" value="" style="edgeStyle=segmentEdgeStyle;endArrow=classic;html=1;rounded=0;entryX=0.714;entryY=1.028;entryDx=0;entryDy=0;entryPerimeter=0;" edge="1" parent="1" target="OOd39kcZihvx2xBCQOC6-8">
          <mxGeometry width="50" height="50" relative="1" as="geometry">
            <mxPoint x="40" y="200" as="sourcePoint" />
            <mxPoint x="250" y="230" as="targetPoint" />
            <Array as="points">
              <mxPoint x="40" y="96" />
            </Array>
          </mxGeometry>
        </mxCell>
        <mxCell id="OOd39kcZihvx2xBCQOC6-57" value="" style="endArrow=none;html=1;rounded=0;fontFamily=Helvetica;fontSize=18;" edge="1" parent="1">
          <mxGeometry width="50" height="50" relative="1" as="geometry">
            <mxPoint x="145" y="209.5" as="sourcePoint" />
            <mxPoint x="155" y="189.5" as="targetPoint" />
          </mxGeometry>
        </mxCell>
        <mxCell id="OOd39kcZihvx2xBCQOC6-58" value="&lt;font style=&quot;font-size: 14px;&quot;&gt;5&lt;/font&gt;" style="text;html=1;align=center;verticalAlign=middle;resizable=0;points=[];autosize=1;strokeColor=none;fillColor=none;fontSize=18;fontFamily=Helvetica;" vertex="1" parent="1">
          <mxGeometry x="133" y="177" width="20" height="30" as="geometry" />
        </mxCell>
        <mxCell id="OOd39kcZihvx2xBCQOC6-60" value="&lt;b&gt;OFF&lt;/b&gt;" style="text;html=1;align=center;verticalAlign=middle;resizable=0;points=[];autosize=1;strokeColor=none;fillColor=none;" vertex="1" parent="1">
          <mxGeometry x="100" y="180" width="40" height="20" as="geometry" />
        </mxCell>
        <mxCell id="OOd39kcZihvx2xBCQOC6-62" value="OP" style="shape=process;whiteSpace=wrap;html=1;backgroundOutline=1;size=0.2222222222222222;" vertex="1" parent="1">
          <mxGeometry x="590" y="10" width="90" height="160" as="geometry" />
        </mxCell>
        <mxCell id="OOd39kcZihvx2xBCQOC6-64" value="DI" style="rounded=0;whiteSpace=wrap;html=1;" vertex="1" parent="1">
          <mxGeometry x="590" y="10" width="20" height="80" as="geometry" />
        </mxCell>
        <mxCell id="OOd39kcZihvx2xBCQOC6-66" value="A" style="rounded=0;whiteSpace=wrap;html=1;" vertex="1" parent="1">
          <mxGeometry x="590" y="90" width="20" height="80" as="geometry" />
        </mxCell>
        <mxCell id="OOd39kcZihvx2xBCQOC6-71" value="RP" style="shape=process;whiteSpace=wrap;html=1;backgroundOutline=1;size=0.2222222222222222;" vertex="1" parent="1">
          <mxGeometry x="460" y="225" width="90" height="160" as="geometry" />
        </mxCell>
        <mxCell id="OOd39kcZihvx2xBCQOC6-72" value="DI" style="rounded=0;whiteSpace=wrap;html=1;" vertex="1" parent="1">
          <mxGeometry x="460" y="225" width="20" height="80" as="geometry" />
        </mxCell>
        <mxCell id="OOd39kcZihvx2xBCQOC6-73" value="A" style="rounded=0;whiteSpace=wrap;html=1;" vertex="1" parent="1">
          <mxGeometry x="460" y="305" width="20" height="80" as="geometry" />
        </mxCell>
        <mxCell id="OOd39kcZihvx2xBCQOC6-75" value="" style="strokeWidth=2;html=1;shape=mxgraph.flowchart.loop_limit;whiteSpace=wrap;rotation=90;" vertex="1" parent="1">
          <mxGeometry x="315" y="215" width="70" height="50" as="geometry" />
        </mxCell>
        <mxCell id="OOd39kcZihvx2xBCQOC6-76" value="SM1&lt;br&gt;" style="text;html=1;align=center;verticalAlign=middle;resizable=0;points=[];autosize=1;strokeColor=none;fillColor=none;" vertex="1" parent="1">
          <mxGeometry x="330" y="230" width="40" height="20" as="geometry" />
        </mxCell>
        <mxCell id="OOd39kcZihvx2xBCQOC6-77" value="" style="endArrow=none;html=1;rounded=0;entryX=0.785;entryY=1.002;entryDx=0;entryDy=0;entryPerimeter=0;" edge="1" parent="1" target="OOd39kcZihvx2xBCQOC6-75">
          <mxGeometry width="50" height="50" relative="1" as="geometry">
            <mxPoint x="290" y="260" as="sourcePoint" />
            <mxPoint x="560" y="310" as="targetPoint" />
          </mxGeometry>
        </mxCell>
        <mxCell id="OOd39kcZihvx2xBCQOC6-78" value="&quot;-1&quot;" style="text;html=1;align=center;verticalAlign=middle;resizable=0;points=[];autosize=1;strokeColor=none;fillColor=none;" vertex="1" parent="1">
          <mxGeometry x="260" y="250" width="30" height="20" as="geometry" />
        </mxCell>
        <mxCell id="OOd39kcZihvx2xBCQOC6-79" value="DO" style="rounded=0;whiteSpace=wrap;html=1;" vertex="1" parent="1">
          <mxGeometry x="530" y="225" width="20" height="160" as="geometry" />
        </mxCell>
        <mxCell id="OOd39kcZihvx2xBCQOC6-80" value="" style="endArrow=none;html=1;rounded=0;exitX=0.993;exitY=0.527;exitDx=0;exitDy=0;exitPerimeter=0;" edge="1" parent="1" source="OOd39kcZihvx2xBCQOC6-79">
          <mxGeometry width="50" height="50" relative="1" as="geometry">
            <mxPoint x="580" y="315" as="sourcePoint" />
            <mxPoint x="570" y="309" as="targetPoint" />
          </mxGeometry>
        </mxCell>
        <mxCell id="OOd39kcZihvx2xBCQOC6-82" value="" style="endArrow=none;html=1;rounded=0;" edge="1" parent="1">
          <mxGeometry width="50" height="50" relative="1" as="geometry">
            <mxPoint x="569.5" y="310" as="sourcePoint" />
            <mxPoint x="569.5" y="180" as="targetPoint" />
          </mxGeometry>
        </mxCell>
        <mxCell id="OOd39kcZihvx2xBCQOC6-83" value="" style="endArrow=none;html=1;rounded=0;startArrow=none;" edge="1" parent="1" source="OOd39kcZihvx2xBCQOC6-127">
          <mxGeometry width="50" height="50" relative="1" as="geometry">
            <mxPoint x="290" y="180" as="sourcePoint" />
            <mxPoint x="570" y="180" as="targetPoint" />
          </mxGeometry>
        </mxCell>
        <mxCell id="OOd39kcZihvx2xBCQOC6-84" value="" style="edgeStyle=segmentEdgeStyle;endArrow=classic;html=1;rounded=0;entryX=0.238;entryY=0.997;entryDx=0;entryDy=0;entryPerimeter=0;" edge="1" parent="1" target="OOd39kcZihvx2xBCQOC6-75">
          <mxGeometry width="50" height="50" relative="1" as="geometry">
            <mxPoint x="290" y="180" as="sourcePoint" />
            <mxPoint x="530" y="200" as="targetPoint" />
            <Array as="points">
              <mxPoint x="290" y="222" />
            </Array>
          </mxGeometry>
        </mxCell>
        <mxCell id="OOd39kcZihvx2xBCQOC6-85" value="" style="shape=trapezoid;perimeter=trapezoidPerimeter;whiteSpace=wrap;html=1;fixedSize=1;rotation=90;" vertex="1" parent="1">
          <mxGeometry x="300" y="325" width="80" height="40" as="geometry" />
        </mxCell>
        <mxCell id="OOd39kcZihvx2xBCQOC6-86" value="КС2&lt;br&gt;" style="text;html=1;align=center;verticalAlign=middle;resizable=0;points=[];autosize=1;strokeColor=none;fillColor=none;" vertex="1" parent="1">
          <mxGeometry x="320" y="335" width="40" height="20" as="geometry" />
        </mxCell>
        <mxCell id="OOd39kcZihvx2xBCQOC6-87" value="" style="shape=crossbar;whiteSpace=wrap;html=1;rounded=1;direction=south;" vertex="1" parent="1">
          <mxGeometry x="215" y="230" width="10" height="40" as="geometry" />
        </mxCell>
        <mxCell id="OOd39kcZihvx2xBCQOC6-88" value="0" style="text;html=1;align=center;verticalAlign=middle;resizable=0;points=[];autosize=1;strokeColor=none;fillColor=none;" vertex="1" parent="1">
          <mxGeometry x="220" y="220" width="20" height="20" as="geometry" />
        </mxCell>
        <mxCell id="OOd39kcZihvx2xBCQOC6-89" value="2" style="text;html=1;align=center;verticalAlign=middle;resizable=0;points=[];autosize=1;strokeColor=none;fillColor=none;" vertex="1" parent="1">
          <mxGeometry x="220" y="255" width="20" height="20" as="geometry" />
        </mxCell>
        <mxCell id="OOd39kcZihvx2xBCQOC6-90" value="" style="shape=crossbar;whiteSpace=wrap;html=1;rounded=1;direction=south;" vertex="1" parent="1">
          <mxGeometry x="215" y="290" width="10" height="50" as="geometry" />
        </mxCell>
        <mxCell id="OOd39kcZihvx2xBCQOC6-91" value="6" style="text;html=1;align=center;verticalAlign=middle;resizable=0;points=[];autosize=1;strokeColor=none;fillColor=none;" vertex="1" parent="1">
          <mxGeometry x="220" y="320" width="20" height="20" as="geometry" />
        </mxCell>
        <mxCell id="OOd39kcZihvx2xBCQOC6-92" value="4" style="text;html=1;align=center;verticalAlign=middle;resizable=0;points=[];autosize=1;strokeColor=none;fillColor=none;" vertex="1" parent="1">
          <mxGeometry x="220" y="290" width="20" height="20" as="geometry" />
        </mxCell>
        <mxCell id="OOd39kcZihvx2xBCQOC6-93" value="" style="shape=crossbar;whiteSpace=wrap;html=1;rounded=1;direction=south;" vertex="1" parent="1">
          <mxGeometry x="215" y="340" width="10" height="45" as="geometry" />
        </mxCell>
        <mxCell id="OOd39kcZihvx2xBCQOC6-95" value="7" style="text;html=1;align=center;verticalAlign=middle;resizable=0;points=[];autosize=1;strokeColor=none;fillColor=none;" vertex="1" parent="1">
          <mxGeometry x="220" y="335" width="20" height="20" as="geometry" />
        </mxCell>
        <mxCell id="OOd39kcZihvx2xBCQOC6-96" value="9" style="text;html=1;align=center;verticalAlign=middle;resizable=0;points=[];autosize=1;strokeColor=none;fillColor=none;" vertex="1" parent="1">
          <mxGeometry x="220" y="365" width="20" height="20" as="geometry" />
        </mxCell>
        <mxCell id="OOd39kcZihvx2xBCQOC6-97" value="" style="endArrow=classic;html=1;rounded=0;exitX=0.5;exitY=0.5;exitDx=0;exitDy=0;exitPerimeter=0;entryX=0.708;entryY=0.989;entryDx=0;entryDy=0;entryPerimeter=0;" edge="1" parent="1" source="OOd39kcZihvx2xBCQOC6-93" target="OOd39kcZihvx2xBCQOC6-85">
          <mxGeometry width="50" height="50" relative="1" as="geometry">
            <mxPoint x="240" y="390" as="sourcePoint" />
            <mxPoint x="290" y="340" as="targetPoint" />
          </mxGeometry>
        </mxCell>
        <mxCell id="OOd39kcZihvx2xBCQOC6-99" value="" style="endArrow=classic;html=1;rounded=0;exitX=0.5;exitY=0.5;exitDx=0;exitDy=0;exitPerimeter=0;entryX=0.424;entryY=0.972;entryDx=0;entryDy=0;entryPerimeter=0;" edge="1" parent="1" target="OOd39kcZihvx2xBCQOC6-85">
          <mxGeometry width="50" height="50" relative="1" as="geometry">
            <mxPoint x="220" y="320" as="sourcePoint" />
            <mxPoint x="320.43999999999994" y="319.14000000000004" as="targetPoint" />
            <Array as="points">
              <mxPoint x="270" y="320" />
              <mxPoint x="270" y="340" />
            </Array>
          </mxGeometry>
        </mxCell>
        <mxCell id="OOd39kcZihvx2xBCQOC6-100" value="" style="endArrow=classic;html=1;rounded=0;exitX=0.007;exitY=1.034;exitDx=0;exitDy=0;exitPerimeter=0;entryX=0.424;entryY=0.972;entryDx=0;entryDy=0;entryPerimeter=0;" edge="1" parent="1" source="OOd39kcZihvx2xBCQOC6-88">
          <mxGeometry width="50" height="50" relative="1" as="geometry">
            <mxPoint x="220" y="300" as="sourcePoint" />
            <mxPoint x="321.12" y="318.91999999999996" as="targetPoint" />
            <Array as="points">
              <mxPoint x="250" y="240" />
              <mxPoint x="250" y="300" />
              <mxPoint x="290" y="300" />
              <mxPoint x="290" y="319" />
            </Array>
          </mxGeometry>
        </mxCell>
        <mxCell id="OOd39kcZihvx2xBCQOC6-102" value="RI2" style="text;html=1;align=center;verticalAlign=middle;resizable=0;points=[];autosize=1;strokeColor=none;fillColor=none;" vertex="1" parent="1">
          <mxGeometry x="290" y="300" width="30" height="20" as="geometry" />
        </mxCell>
        <mxCell id="OOd39kcZihvx2xBCQOC6-103" value="R2" style="text;html=1;align=center;verticalAlign=middle;resizable=0;points=[];autosize=1;strokeColor=none;fillColor=none;" vertex="1" parent="1">
          <mxGeometry x="290" y="320" width="30" height="20" as="geometry" />
        </mxCell>
        <mxCell id="OOd39kcZihvx2xBCQOC6-104" value="R1" style="text;html=1;align=center;verticalAlign=middle;resizable=0;points=[];autosize=1;strokeColor=none;fillColor=none;" vertex="1" parent="1">
          <mxGeometry x="290" y="340" width="30" height="20" as="geometry" />
        </mxCell>
        <mxCell id="OOd39kcZihvx2xBCQOC6-105" value="" style="shape=crossbar;whiteSpace=wrap;html=1;rounded=1;direction=south;" vertex="1" parent="1">
          <mxGeometry x="450" y="320" width="10" height="40" as="geometry" />
        </mxCell>
        <mxCell id="OOd39kcZihvx2xBCQOC6-106" value="0" style="text;html=1;align=center;verticalAlign=middle;resizable=0;points=[];autosize=1;strokeColor=none;fillColor=none;" vertex="1" parent="1">
          <mxGeometry x="420" y="315" width="20" height="20" as="geometry" />
        </mxCell>
        <mxCell id="OOd39kcZihvx2xBCQOC6-107" value="2" style="text;html=1;align=center;verticalAlign=middle;resizable=0;points=[];autosize=1;strokeColor=none;fillColor=none;" vertex="1" parent="1">
          <mxGeometry x="420" y="345" width="20" height="20" as="geometry" />
        </mxCell>
        <mxCell id="OOd39kcZihvx2xBCQOC6-110" value="" style="endArrow=none;html=1;rounded=0;fontFamily=Helvetica;fontSize=18;" edge="1" parent="1">
          <mxGeometry width="50" height="50" relative="1" as="geometry">
            <mxPoint x="272" y="310.00000000000006" as="sourcePoint" />
            <mxPoint x="282" y="290.00000000000006" as="targetPoint" />
          </mxGeometry>
        </mxCell>
        <mxCell id="OOd39kcZihvx2xBCQOC6-111" value="&lt;font style=&quot;font-size: 14px;&quot;&gt;3&lt;/font&gt;" style="text;html=1;align=center;verticalAlign=middle;resizable=0;points=[];autosize=1;strokeColor=none;fillColor=none;fontSize=18;fontFamily=Helvetica;" vertex="1" parent="1">
          <mxGeometry x="260" y="277.5" width="20" height="30" as="geometry" />
        </mxCell>
        <mxCell id="OOd39kcZihvx2xBCQOC6-112" value="" style="endArrow=none;html=1;rounded=0;fontFamily=Helvetica;fontSize=18;" edge="1" parent="1">
          <mxGeometry width="50" height="50" relative="1" as="geometry">
            <mxPoint x="281.9999999999999" y="350" as="sourcePoint" />
            <mxPoint x="291.9999999999999" y="330" as="targetPoint" />
          </mxGeometry>
        </mxCell>
        <mxCell id="OOd39kcZihvx2xBCQOC6-113" value="&lt;font style=&quot;font-size: 14px;&quot;&gt;3&lt;/font&gt;" style="text;html=1;align=center;verticalAlign=middle;resizable=0;points=[];autosize=1;strokeColor=none;fillColor=none;fontSize=18;fontFamily=Helvetica;" vertex="1" parent="1">
          <mxGeometry x="270" y="317.5" width="20" height="30" as="geometry" />
        </mxCell>
        <mxCell id="OOd39kcZihvx2xBCQOC6-114" value="" style="endArrow=none;html=1;rounded=0;fontFamily=Helvetica;fontSize=18;" edge="1" parent="1">
          <mxGeometry width="50" height="50" relative="1" as="geometry">
            <mxPoint x="265.9999999999999" y="372.5" as="sourcePoint" />
            <mxPoint x="275.9999999999999" y="352.5" as="targetPoint" />
          </mxGeometry>
        </mxCell>
        <mxCell id="OOd39kcZihvx2xBCQOC6-115" value="&lt;font style=&quot;font-size: 14px;&quot;&gt;3&lt;/font&gt;" style="text;html=1;align=center;verticalAlign=middle;resizable=0;points=[];autosize=1;strokeColor=none;fillColor=none;fontSize=18;fontFamily=Helvetica;" vertex="1" parent="1">
          <mxGeometry x="254" y="340" width="20" height="30" as="geometry" />
        </mxCell>
        <mxCell id="OOd39kcZihvx2xBCQOC6-116" value="" style="endArrow=none;html=1;rounded=0;entryX=0.5;entryY=0.5;entryDx=0;entryDy=0;entryPerimeter=0;exitX=0.981;exitY=0.271;exitDx=0;exitDy=0;exitPerimeter=0;" edge="1" parent="1" source="OOd39kcZihvx2xBCQOC6-86" target="OOd39kcZihvx2xBCQOC6-105">
          <mxGeometry width="50" height="50" relative="1" as="geometry">
            <mxPoint x="290" y="360" as="sourcePoint" />
            <mxPoint x="340" y="310" as="targetPoint" />
          </mxGeometry>
        </mxCell>
        <mxCell id="OOd39kcZihvx2xBCQOC6-118" value="" style="endArrow=none;html=1;rounded=0;fontFamily=Helvetica;fontSize=18;" edge="1" parent="1">
          <mxGeometry width="50" height="50" relative="1" as="geometry">
            <mxPoint x="398" y="349.5" as="sourcePoint" />
            <mxPoint x="408" y="329.5" as="targetPoint" />
          </mxGeometry>
        </mxCell>
        <mxCell id="OOd39kcZihvx2xBCQOC6-119" value="&lt;font style=&quot;font-size: 14px;&quot;&gt;3&lt;/font&gt;" style="text;html=1;align=center;verticalAlign=middle;resizable=0;points=[];autosize=1;strokeColor=none;fillColor=none;fontSize=18;fontFamily=Helvetica;" vertex="1" parent="1">
          <mxGeometry x="388" y="317" width="20" height="30" as="geometry" />
        </mxCell>
        <mxCell id="OOd39kcZihvx2xBCQOC6-120" value="" style="shape=crossbar;whiteSpace=wrap;html=1;rounded=1;direction=south;" vertex="1" parent="1">
          <mxGeometry x="580" y="95" width="10" height="75" as="geometry" />
        </mxCell>
        <mxCell id="OOd39kcZihvx2xBCQOC6-121" value="0" style="text;html=1;align=center;verticalAlign=middle;resizable=0;points=[];autosize=1;strokeColor=none;fillColor=none;" vertex="1" parent="1">
          <mxGeometry x="560" y="95" width="20" height="20" as="geometry" />
        </mxCell>
        <mxCell id="OOd39kcZihvx2xBCQOC6-122" value="3" style="text;html=1;align=center;verticalAlign=middle;resizable=0;points=[];autosize=1;strokeColor=none;fillColor=none;" vertex="1" parent="1">
          <mxGeometry x="560" y="150" width="20" height="20" as="geometry" />
        </mxCell>
        <mxCell id="OOd39kcZihvx2xBCQOC6-123" value="" style="shape=trapezoid;perimeter=trapezoidPerimeter;whiteSpace=wrap;html=1;fixedSize=1;rotation=90;" vertex="1" parent="1">
          <mxGeometry x="440" y="115" width="80" height="40" as="geometry" />
        </mxCell>
        <mxCell id="OOd39kcZihvx2xBCQOC6-124" value="КС4" style="text;html=1;align=center;verticalAlign=middle;resizable=0;points=[];autosize=1;strokeColor=none;fillColor=none;" vertex="1" parent="1">
          <mxGeometry x="460" y="125" width="40" height="20" as="geometry" />
        </mxCell>
        <mxCell id="OOd39kcZihvx2xBCQOC6-125" value="" style="edgeStyle=segmentEdgeStyle;endArrow=classic;html=1;rounded=0;entryX=0.75;entryY=1;entryDx=0;entryDy=0;" edge="1" parent="1" target="OOd39kcZihvx2xBCQOC6-123">
          <mxGeometry width="50" height="50" relative="1" as="geometry">
            <mxPoint x="430" y="180" as="sourcePoint" />
            <mxPoint x="510" y="270" as="targetPoint" />
            <Array as="points">
              <mxPoint x="430" y="155" />
            </Array>
          </mxGeometry>
        </mxCell>
        <mxCell id="OOd39kcZihvx2xBCQOC6-126" value="из RP" style="text;html=1;align=center;verticalAlign=middle;resizable=0;points=[];autosize=1;strokeColor=none;fillColor=none;" vertex="1" parent="1">
          <mxGeometry x="400" y="136.5" width="50" height="20" as="geometry" />
        </mxCell>
        <mxCell id="OOd39kcZihvx2xBCQOC6-127" value="" style="shape=waypoint;sketch=0;fillStyle=solid;size=6;pointerEvents=1;points=[];fillColor=none;resizable=0;rotatable=0;perimeter=centerPerimeter;snapToPoint=1;" vertex="1" parent="1">
          <mxGeometry x="410" y="160" width="40" height="40" as="geometry" />
        </mxCell>
        <mxCell id="OOd39kcZihvx2xBCQOC6-128" value="" style="endArrow=none;html=1;rounded=0;" edge="1" parent="1" target="OOd39kcZihvx2xBCQOC6-127">
          <mxGeometry width="50" height="50" relative="1" as="geometry">
            <mxPoint x="290" y="180" as="sourcePoint" />
            <mxPoint x="560" y="180" as="targetPoint" />
          </mxGeometry>
        </mxCell>
        <mxCell id="OOd39kcZihvx2xBCQOC6-131" value="" style="shape=trapezoid;perimeter=trapezoidPerimeter;whiteSpace=wrap;html=1;fixedSize=1;rotation=90;" vertex="1" parent="1">
          <mxGeometry x="374" y="240" width="80" height="40" as="geometry" />
        </mxCell>
        <mxCell id="OOd39kcZihvx2xBCQOC6-132" value="КС3" style="text;html=1;align=center;verticalAlign=middle;resizable=0;points=[];autosize=1;strokeColor=none;fillColor=none;" vertex="1" parent="1">
          <mxGeometry x="394" y="250" width="40" height="20" as="geometry" />
        </mxCell>
        <mxCell id="OOd39kcZihvx2xBCQOC6-133" value="" style="endArrow=classic;html=1;rounded=0;exitX=1.01;exitY=0.51;exitDx=0;exitDy=0;exitPerimeter=0;entryX=-0.065;entryY=0.44;entryDx=0;entryDy=0;entryPerimeter=0;" edge="1" parent="1" source="OOd39kcZihvx2xBCQOC6-132" target="OOd39kcZihvx2xBCQOC6-72">
          <mxGeometry width="50" height="50" relative="1" as="geometry">
            <mxPoint x="460" y="230" as="sourcePoint" />
            <mxPoint x="510" y="180" as="targetPoint" />
          </mxGeometry>
        </mxCell>
        <mxCell id="OOd39kcZihvx2xBCQOC6-134" value="" style="endArrow=classic;html=1;rounded=0;exitX=0.395;exitY=-0.026;exitDx=0;exitDy=0;exitPerimeter=0;entryX=0.172;entryY=0.988;entryDx=0;entryDy=0;entryPerimeter=0;" edge="1" parent="1" source="OOd39kcZihvx2xBCQOC6-75" target="OOd39kcZihvx2xBCQOC6-131">
          <mxGeometry width="50" height="50" relative="1" as="geometry">
            <mxPoint x="320" y="310" as="sourcePoint" />
            <mxPoint x="370" y="260" as="targetPoint" />
          </mxGeometry>
        </mxCell>
        <mxCell id="OOd39kcZihvx2xBCQOC6-135" value="" style="endArrow=classic;html=1;rounded=0;exitX=1.032;exitY=0.714;exitDx=0;exitDy=0;exitPerimeter=0;entryX=0.577;entryY=0.572;entryDx=0;entryDy=0;entryPerimeter=0;" edge="1" parent="1" source="OOd39kcZihvx2xBCQOC6-124" target="OOd39kcZihvx2xBCQOC6-120">
          <mxGeometry width="50" height="50" relative="1" as="geometry">
            <mxPoint x="430" y="150" as="sourcePoint" />
            <mxPoint x="480" y="100" as="targetPoint" />
          </mxGeometry>
        </mxCell>
        <mxCell id="OOd39kcZihvx2xBCQOC6-136" value="" style="shape=trapezoid;perimeter=trapezoidPerimeter;whiteSpace=wrap;html=1;fixedSize=1;rotation=90;" vertex="1" parent="1">
          <mxGeometry x="720" y="136.5" width="80" height="40" as="geometry" />
        </mxCell>
        <mxCell id="OOd39kcZihvx2xBCQOC6-137" value="КС5" style="text;html=1;align=center;verticalAlign=middle;resizable=0;points=[];autosize=1;strokeColor=none;fillColor=none;" vertex="1" parent="1">
          <mxGeometry x="740" y="146.5" width="40" height="20" as="geometry" />
        </mxCell>
        <mxCell id="OOd39kcZihvx2xBCQOC6-139" value="" style="endArrow=classic;html=1;rounded=0;entryX=1;entryY=0.75;entryDx=0;entryDy=0;" edge="1" parent="1" target="OOd39kcZihvx2xBCQOC6-136">
          <mxGeometry width="50" height="50" relative="1" as="geometry">
            <mxPoint x="751" y="220" as="sourcePoint" />
            <mxPoint x="580" y="160" as="targetPoint" />
          </mxGeometry>
        </mxCell>
        <mxCell id="OOd39kcZihvx2xBCQOC6-140" value="А1мл" style="text;html=1;align=center;verticalAlign=middle;resizable=0;points=[];autosize=1;strokeColor=none;fillColor=none;" vertex="1" parent="1">
          <mxGeometry x="720" y="220" width="50" height="20" as="geometry" />
        </mxCell>
        <mxCell id="OOd39kcZihvx2xBCQOC6-141" value="DO" style="rounded=0;whiteSpace=wrap;html=1;" vertex="1" parent="1">
          <mxGeometry x="660" y="10" width="20" height="160" as="geometry" />
        </mxCell>
        <mxCell id="OOd39kcZihvx2xBCQOC6-142" value="" style="endArrow=none;html=1;rounded=0;entryX=1;entryY=0.5;entryDx=0;entryDy=0;" edge="1" parent="1" target="OOd39kcZihvx2xBCQOC6-141">
          <mxGeometry width="50" height="50" relative="1" as="geometry">
            <mxPoint x="700" y="90" as="sourcePoint" />
            <mxPoint x="530" y="90" as="targetPoint" />
          </mxGeometry>
        </mxCell>
        <mxCell id="OOd39kcZihvx2xBCQOC6-143" value="" style="endArrow=none;html=1;rounded=0;" edge="1" parent="1">
          <mxGeometry width="50" height="50" relative="1" as="geometry">
            <mxPoint x="700" y="180" as="sourcePoint" />
            <mxPoint x="700" y="90" as="targetPoint" />
          </mxGeometry>
        </mxCell>
        <mxCell id="OOd39kcZihvx2xBCQOC6-144" value="" style="endArrow=none;html=1;rounded=0;entryX=0.25;entryY=1;entryDx=0;entryDy=0;" edge="1" parent="1" target="OOd39kcZihvx2xBCQOC6-136">
          <mxGeometry width="50" height="50" relative="1" as="geometry">
            <mxPoint x="700" y="137" as="sourcePoint" />
            <mxPoint x="530" y="90" as="targetPoint" />
          </mxGeometry>
        </mxCell>
        <mxCell id="OOd39kcZihvx2xBCQOC6-145" value="" style="endArrow=none;html=1;rounded=0;entryX=0.792;entryY=1.003;entryDx=0;entryDy=0;entryPerimeter=0;" edge="1" parent="1" target="OOd39kcZihvx2xBCQOC6-136">
          <mxGeometry width="50" height="50" relative="1" as="geometry">
            <mxPoint x="700" y="180" as="sourcePoint" />
            <mxPoint x="720" y="180" as="targetPoint" />
          </mxGeometry>
        </mxCell>
        <mxCell id="OOd39kcZihvx2xBCQOC6-146" value="" style="endArrow=none;html=1;rounded=0;fontFamily=Helvetica;fontSize=18;" edge="1" parent="1">
          <mxGeometry width="50" height="50" relative="1" as="geometry">
            <mxPoint x="710" y="189" as="sourcePoint" />
            <mxPoint x="720" y="169" as="targetPoint" />
          </mxGeometry>
        </mxCell>
        <mxCell id="OOd39kcZihvx2xBCQOC6-147" value="&lt;font style=&quot;font-size: 14px;&quot;&gt;4&lt;/font&gt;" style="text;html=1;align=center;verticalAlign=middle;resizable=0;points=[];autosize=1;strokeColor=none;fillColor=none;fontSize=18;fontFamily=Helvetica;" vertex="1" parent="1">
          <mxGeometry x="700" y="156.5" width="20" height="30" as="geometry" />
        </mxCell>
        <mxCell id="OOd39kcZihvx2xBCQOC6-148" value="" style="endArrow=none;html=1;rounded=0;fontFamily=Helvetica;fontSize=18;" edge="1" parent="1">
          <mxGeometry width="50" height="50" relative="1" as="geometry">
            <mxPoint x="710" y="146.25" as="sourcePoint" />
            <mxPoint x="720" y="126.25" as="targetPoint" />
          </mxGeometry>
        </mxCell>
        <mxCell id="OOd39kcZihvx2xBCQOC6-149" value="&lt;font style=&quot;font-size: 14px;&quot;&gt;4&lt;/font&gt;" style="text;html=1;align=center;verticalAlign=middle;resizable=0;points=[];autosize=1;strokeColor=none;fillColor=none;fontSize=18;fontFamily=Helvetica;" vertex="1" parent="1">
          <mxGeometry x="700" y="113.75" width="20" height="30" as="geometry" />
        </mxCell>
        <mxCell id="OOd39kcZihvx2xBCQOC6-150" value="3-0" style="text;html=1;align=center;verticalAlign=middle;resizable=0;points=[];autosize=1;strokeColor=none;fillColor=none;" vertex="1" parent="1">
          <mxGeometry x="715" y="120" width="30" height="20" as="geometry" />
        </mxCell>
        <mxCell id="OOd39kcZihvx2xBCQOC6-151" value="7-4" style="text;html=1;align=center;verticalAlign=middle;resizable=0;points=[];autosize=1;strokeColor=none;fillColor=none;" vertex="1" parent="1">
          <mxGeometry x="715" y="160" width="30" height="20" as="geometry" />
        </mxCell>
        <mxCell id="OOd39kcZihvx2xBCQOC6-152" value="" style="endArrow=none;html=1;rounded=0;" edge="1" parent="1">
          <mxGeometry width="50" height="50" relative="1" as="geometry">
            <mxPoint x="700" y="-30" as="sourcePoint" />
            <mxPoint x="700" y="90" as="targetPoint" />
          </mxGeometry>
        </mxCell>
        <mxCell id="OOd39kcZihvx2xBCQOC6-153" value="" style="endArrow=none;html=1;rounded=0;" edge="1" parent="1">
          <mxGeometry width="50" height="50" relative="1" as="geometry">
            <mxPoint x="320" y="-30" as="sourcePoint" />
            <mxPoint x="700" y="-30" as="targetPoint" />
          </mxGeometry>
        </mxCell>
        <mxCell id="OOd39kcZihvx2xBCQOC6-155" value="" style="edgeStyle=segmentEdgeStyle;endArrow=classic;html=1;rounded=0;" edge="1" parent="1">
          <mxGeometry width="50" height="50" relative="1" as="geometry">
            <mxPoint x="320" y="-30" as="sourcePoint" />
            <mxPoint x="350" y="30" as="targetPoint" />
            <Array as="points">
              <mxPoint x="320" y="30" />
            </Array>
          </mxGeometry>
        </mxCell>
        <mxCell id="OOd39kcZihvx2xBCQOC6-156" value="" style="edgeStyle=elbowEdgeStyle;elbow=horizontal;endArrow=classic;html=1;rounded=0;exitX=0.993;exitY=0.34;exitDx=0;exitDy=0;exitPerimeter=0;entryX=0.045;entryY=1.007;entryDx=0;entryDy=0;entryPerimeter=0;" edge="1" parent="1" source="OOd39kcZihvx2xBCQOC6-22" target="OOd39kcZihvx2xBCQOC6-123">
          <mxGeometry width="50" height="50" relative="1" as="geometry">
            <mxPoint x="420" y="60" as="sourcePoint" />
            <mxPoint x="470" y="10" as="targetPoint" />
            <Array as="points">
              <mxPoint x="440" y="110" />
            </Array>
          </mxGeometry>
        </mxCell>
        <mxCell id="OOd39kcZihvx2xBCQOC6-157" value="" style="edgeStyle=elbowEdgeStyle;elbow=horizontal;endArrow=classic;html=1;rounded=0;exitX=1.017;exitY=-0.117;exitDx=0;exitDy=0;exitPerimeter=0;entryX=0;entryY=0.5;entryDx=0;entryDy=0;" edge="1" parent="1" source="OOd39kcZihvx2xBCQOC6-137" target="OOd39kcZihvx2xBCQOC6-34">
          <mxGeometry width="50" height="50" relative="1" as="geometry">
            <mxPoint x="790" y="155" as="sourcePoint" />
            <mxPoint x="840" y="105" as="targetPoint" />
          </mxGeometry>
        </mxCell>
        <mxCell id="OOd39kcZihvx2xBCQOC6-158" value="" style="edgeStyle=elbowEdgeStyle;elbow=horizontal;endArrow=classic;html=1;rounded=0;entryX=0;entryY=0.5;entryDx=0;entryDy=0;" edge="1" parent="1" target="OOd39kcZihvx2xBCQOC6-38">
          <mxGeometry width="50" height="50" relative="1" as="geometry">
            <mxPoint x="780" y="166" as="sourcePoint" />
            <mxPoint x="840" y="116.5" as="targetPoint" />
          </mxGeometry>
        </mxCell>
        <mxCell id="OOd39kcZihvx2xBCQOC6-159" value="RIA" style="text;html=1;align=center;verticalAlign=middle;resizable=0;points=[];autosize=1;strokeColor=none;fillColor=none;" vertex="1" parent="1">
          <mxGeometry x="430" y="75" width="40" height="20" as="geometry" />
        </mxCell>
        <mxCell id="OOd39kcZihvx2xBCQOC6-160" value="" style="endArrow=none;html=1;rounded=0;" edge="1" parent="1">
          <mxGeometry width="50" height="50" relative="1" as="geometry">
            <mxPoint x="210" y="200" as="sourcePoint" />
            <mxPoint x="270" y="200" as="targetPoint" />
          </mxGeometry>
        </mxCell>
        <mxCell id="OOd39kcZihvx2xBCQOC6-161" value="" style="endArrow=none;html=1;rounded=0;" edge="1" parent="1">
          <mxGeometry width="50" height="50" relative="1" as="geometry">
            <mxPoint x="270" y="200" as="sourcePoint" />
            <mxPoint x="270" y="140" as="targetPoint" />
          </mxGeometry>
        </mxCell>
        <mxCell id="OOd39kcZihvx2xBCQOC6-162" value="" style="endArrow=classic;html=1;rounded=0;entryX=-0.01;entryY=0.79;entryDx=0;entryDy=0;entryPerimeter=0;" edge="1" parent="1" target="OOd39kcZihvx2xBCQOC6-124">
          <mxGeometry width="50" height="50" relative="1" as="geometry">
            <mxPoint x="270" y="140" as="sourcePoint" />
            <mxPoint x="400" y="250" as="targetPoint" />
          </mxGeometry>
        </mxCell>
        <mxCell id="OOd39kcZihvx2xBCQOC6-163" value="" style="endArrow=none;html=1;rounded=0;fontFamily=Helvetica;fontSize=18;" edge="1" parent="1">
          <mxGeometry width="50" height="50" relative="1" as="geometry">
            <mxPoint x="244" y="209.5" as="sourcePoint" />
            <mxPoint x="254" y="189.5" as="targetPoint" />
          </mxGeometry>
        </mxCell>
        <mxCell id="OOd39kcZihvx2xBCQOC6-164" value="&lt;font style=&quot;font-size: 14px;&quot;&gt;5&lt;/font&gt;" style="text;html=1;align=center;verticalAlign=middle;resizable=0;points=[];autosize=1;strokeColor=none;fillColor=none;fontSize=18;fontFamily=Helvetica;" vertex="1" parent="1">
          <mxGeometry x="230" y="174" width="20" height="30" as="geometry" />
        </mxCell>
        <mxCell id="OOd39kcZihvx2xBCQOC6-166" value="&lt;b&gt;A1&lt;/b&gt;" style="text;html=1;align=center;verticalAlign=middle;resizable=0;points=[];autosize=1;strokeColor=none;fillColor=none;" vertex="1" parent="1">
          <mxGeometry x="205" y="180" width="30" height="20" as="geometry" />
        </mxCell>
        <mxCell id="OOd39kcZihvx2xBCQOC6-167" value="A1" style="text;html=1;align=center;verticalAlign=middle;resizable=0;points=[];autosize=1;strokeColor=none;fillColor=none;" vertex="1" parent="1">
          <mxGeometry x="430" y="118.75" width="30" height="20" as="geometry" />
        </mxCell>
        <mxCell id="OOd39kcZihvx2xBCQOC6-168" value="" style="shape=waypoint;sketch=0;fillStyle=solid;size=6;pointerEvents=1;points=[];fillColor=none;resizable=0;rotatable=0;perimeter=centerPerimeter;snapToPoint=1;" vertex="1" parent="1">
          <mxGeometry x="189" y="180" width="40" height="40" as="geometry" />
        </mxCell>
        <mxCell id="OOd39kcZihvx2xBCQOC6-169" value="" style="shape=waypoint;sketch=0;fillStyle=solid;size=6;pointerEvents=1;points=[];fillColor=none;resizable=0;rotatable=0;perimeter=centerPerimeter;snapToPoint=1;" vertex="1" parent="1">
          <mxGeometry x="680" y="70" width="40" height="40" as="geometry" />
        </mxCell>
        <mxCell id="OOd39kcZihvx2xBCQOC6-170" value="" style="endArrow=none;html=1;rounded=0;startArrow=none;" edge="1" parent="1" source="OOd39kcZihvx2xBCQOC6-172">
          <mxGeometry width="50" height="50" relative="1" as="geometry">
            <mxPoint x="140" y="75" as="sourcePoint" />
            <mxPoint x="140" y="120" as="targetPoint" />
          </mxGeometry>
        </mxCell>
        <mxCell id="OOd39kcZihvx2xBCQOC6-171" value="" style="endArrow=classic;html=1;rounded=0;" edge="1" parent="1">
          <mxGeometry width="50" height="50" relative="1" as="geometry">
            <mxPoint x="140" y="120" as="sourcePoint" />
            <mxPoint x="460" y="120" as="targetPoint" />
          </mxGeometry>
        </mxCell>
        <mxCell id="OOd39kcZihvx2xBCQOC6-172" value="" style="shape=waypoint;sketch=0;fillStyle=solid;size=6;pointerEvents=1;points=[];fillColor=none;resizable=0;rotatable=0;perimeter=centerPerimeter;snapToPoint=1;" vertex="1" parent="1">
          <mxGeometry x="120" y="55" width="40" height="40" as="geometry" />
        </mxCell>
        <mxCell id="OOd39kcZihvx2xBCQOC6-173" value="" style="endArrow=none;html=1;rounded=0;" edge="1" parent="1" target="OOd39kcZihvx2xBCQOC6-172">
          <mxGeometry width="50" height="50" relative="1" as="geometry">
            <mxPoint x="140" y="75" as="sourcePoint" />
            <mxPoint x="140" y="120" as="targetPoint" />
          </mxGeometry>
        </mxCell>
        <mxCell id="OOd39kcZihvx2xBCQOC6-174" value="" style="endArrow=none;html=1;rounded=0;fontFamily=Helvetica;fontSize=18;" edge="1" parent="1">
          <mxGeometry width="50" height="50" relative="1" as="geometry">
            <mxPoint x="134" y="115" as="sourcePoint" />
            <mxPoint x="144" y="95" as="targetPoint" />
          </mxGeometry>
        </mxCell>
        <mxCell id="OOd39kcZihvx2xBCQOC6-175" value="&lt;font style=&quot;font-size: 14px;&quot;&gt;5&lt;/font&gt;" style="text;html=1;align=center;verticalAlign=middle;resizable=0;points=[];autosize=1;strokeColor=none;fillColor=none;fontSize=18;fontFamily=Helvetica;" vertex="1" parent="1">
          <mxGeometry x="120" y="81.5" width="20" height="30" as="geometry" />
        </mxCell>
        <mxCell id="OOd39kcZihvx2xBCQOC6-176" value="CK" style="text;html=1;align=center;verticalAlign=middle;resizable=0;points=[];autosize=1;strokeColor=none;fillColor=none;" vertex="1" parent="1">
          <mxGeometry x="430" y="100" width="30" height="20" as="geometry" />
        </mxCell>
        <mxCell id="OOd39kcZihvx2xBCQOC6-177" value="" style="endArrow=none;html=1;rounded=0;entryX=1.007;entryY=0.516;entryDx=0;entryDy=0;entryPerimeter=0;" edge="1" parent="1" target="OOd39kcZihvx2xBCQOC6-137">
          <mxGeometry width="50" height="50" relative="1" as="geometry">
            <mxPoint x="800" y="157" as="sourcePoint" />
            <mxPoint x="520" y="190" as="targetPoint" />
          </mxGeometry>
        </mxCell>
        <mxCell id="OOd39kcZihvx2xBCQOC6-178" value="" style="endArrow=none;html=1;rounded=0;" edge="1" parent="1">
          <mxGeometry width="50" height="50" relative="1" as="geometry">
            <mxPoint x="800" y="440" as="sourcePoint" />
            <mxPoint x="800" y="160" as="targetPoint" />
          </mxGeometry>
        </mxCell>
        <mxCell id="OOd39kcZihvx2xBCQOC6-179" value="" style="endArrow=none;html=1;rounded=0;" edge="1" parent="1">
          <mxGeometry width="50" height="50" relative="1" as="geometry">
            <mxPoint x="80" y="440" as="sourcePoint" />
            <mxPoint x="800" y="440" as="targetPoint" />
          </mxGeometry>
        </mxCell>
        <mxCell id="OOd39kcZihvx2xBCQOC6-180" value="" style="endArrow=none;html=1;rounded=0;" edge="1" parent="1">
          <mxGeometry width="50" height="50" relative="1" as="geometry">
            <mxPoint x="80" y="440" as="sourcePoint" />
            <mxPoint x="80" y="250" as="targetPoint" />
          </mxGeometry>
        </mxCell>
        <mxCell id="OOd39kcZihvx2xBCQOC6-181" value="" style="endArrow=classic;html=1;rounded=0;" edge="1" parent="1">
          <mxGeometry width="50" height="50" relative="1" as="geometry">
            <mxPoint x="80" y="250" as="sourcePoint" />
            <mxPoint x="120" y="250" as="targetPoint" />
          </mxGeometry>
        </mxCell>
        <mxCell id="OOd39kcZihvx2xBCQOC6-182" value="" style="endArrow=classic;html=1;rounded=0;entryX=0;entryY=0.5;entryDx=0;entryDy=0;" edge="1" parent="1" target="OOd39kcZihvx2xBCQOC6-28">
          <mxGeometry width="50" height="50" relative="1" as="geometry">
            <mxPoint x="80" y="320" as="sourcePoint" />
            <mxPoint x="300" y="260" as="targetPoint" />
          </mxGeometry>
        </mxCell>
        <mxCell id="OOd39kcZihvx2xBCQOC6-183" value="" style="endArrow=classic;html=1;rounded=0;entryX=0;entryY=0.5;entryDx=0;entryDy=0;" edge="1" parent="1" target="OOd39kcZihvx2xBCQOC6-31">
          <mxGeometry width="50" height="50" relative="1" as="geometry">
            <mxPoint x="80" y="380" as="sourcePoint" />
            <mxPoint x="300" y="260" as="targetPoint" />
          </mxGeometry>
        </mxCell>
        <mxCell id="OOd39kcZihvx2xBCQOC6-184" value="" style="endArrow=none;html=1;rounded=0;fontFamily=Helvetica;fontSize=18;" edge="1" parent="1">
          <mxGeometry width="50" height="50" relative="1" as="geometry">
            <mxPoint x="99" y="257.5" as="sourcePoint" />
            <mxPoint x="109" y="237.5" as="targetPoint" />
          </mxGeometry>
        </mxCell>
        <mxCell id="OOd39kcZihvx2xBCQOC6-185" value="&lt;font style=&quot;font-size: 14px;&quot;&gt;4&lt;/font&gt;" style="text;html=1;align=center;verticalAlign=middle;resizable=0;points=[];autosize=1;strokeColor=none;fillColor=none;fontSize=18;fontFamily=Helvetica;" vertex="1" parent="1">
          <mxGeometry x="87" y="225" width="20" height="30" as="geometry" />
        </mxCell>
        <mxCell id="OOd39kcZihvx2xBCQOC6-186" value="" style="endArrow=none;html=1;rounded=0;fontFamily=Helvetica;fontSize=18;" edge="1" parent="1">
          <mxGeometry width="50" height="50" relative="1" as="geometry">
            <mxPoint x="97" y="330" as="sourcePoint" />
            <mxPoint x="107" y="310" as="targetPoint" />
          </mxGeometry>
        </mxCell>
        <mxCell id="OOd39kcZihvx2xBCQOC6-187" value="&lt;font style=&quot;font-size: 14px;&quot;&gt;4&lt;/font&gt;" style="text;html=1;align=center;verticalAlign=middle;resizable=0;points=[];autosize=1;strokeColor=none;fillColor=none;fontSize=18;fontFamily=Helvetica;" vertex="1" parent="1">
          <mxGeometry x="85" y="297.5" width="20" height="30" as="geometry" />
        </mxCell>
        <mxCell id="OOd39kcZihvx2xBCQOC6-188" value="" style="endArrow=none;html=1;rounded=0;fontFamily=Helvetica;fontSize=18;" edge="1" parent="1">
          <mxGeometry width="50" height="50" relative="1" as="geometry">
            <mxPoint x="95" y="390" as="sourcePoint" />
            <mxPoint x="105" y="370" as="targetPoint" />
          </mxGeometry>
        </mxCell>
        <mxCell id="OOd39kcZihvx2xBCQOC6-189" value="&lt;font style=&quot;font-size: 14px;&quot;&gt;4&lt;/font&gt;" style="text;html=1;align=center;verticalAlign=middle;resizable=0;points=[];autosize=1;strokeColor=none;fillColor=none;fontSize=18;fontFamily=Helvetica;" vertex="1" parent="1">
          <mxGeometry x="83" y="357.5" width="20" height="30" as="geometry" />
        </mxCell>
        <mxCell id="OOd39kcZihvx2xBCQOC6-190" value="" style="endArrow=classic;html=1;rounded=0;entryX=0;entryY=0.25;entryDx=0;entryDy=0;" edge="1" parent="1" target="OOd39kcZihvx2xBCQOC6-31">
          <mxGeometry width="50" height="50" relative="1" as="geometry">
            <mxPoint x="70" y="365" as="sourcePoint" />
            <mxPoint x="89" y="355" as="targetPoint" />
          </mxGeometry>
        </mxCell>
        <mxCell id="OOd39kcZihvx2xBCQOC6-191" value="YC1" style="text;html=1;align=center;verticalAlign=middle;resizable=0;points=[];autosize=1;strokeColor=none;fillColor=none;" vertex="1" parent="1">
          <mxGeometry x="40" y="350" width="40" height="20" as="geometry" />
        </mxCell>
        <mxCell id="OOd39kcZihvx2xBCQOC6-192" value="" style="endArrow=classic;html=1;rounded=0;" edge="1" parent="1">
          <mxGeometry width="50" height="50" relative="1" as="geometry">
            <mxPoint x="70" y="305" as="sourcePoint" />
            <mxPoint x="120" y="305" as="targetPoint" />
          </mxGeometry>
        </mxCell>
        <mxCell id="OOd39kcZihvx2xBCQOC6-193" value="YC2" style="text;html=1;align=center;verticalAlign=middle;resizable=0;points=[];autosize=1;strokeColor=none;fillColor=none;" vertex="1" parent="1">
          <mxGeometry x="40" y="290" width="40" height="20" as="geometry" />
        </mxCell>
        <mxCell id="OOd39kcZihvx2xBCQOC6-195" value="" style="endArrow=classic;html=1;rounded=0;" edge="1" parent="1">
          <mxGeometry width="50" height="50" relative="1" as="geometry">
            <mxPoint x="69" y="265" as="sourcePoint" />
            <mxPoint x="119" y="265" as="targetPoint" />
          </mxGeometry>
        </mxCell>
        <mxCell id="OOd39kcZihvx2xBCQOC6-196" value="YC3" style="text;html=1;align=center;verticalAlign=middle;resizable=0;points=[];autosize=1;strokeColor=none;fillColor=none;" vertex="1" parent="1">
          <mxGeometry x="39" y="250" width="40" height="20" as="geometry" />
        </mxCell>
      </root>
    </mxGraphModel>
  </diagram>
</mxfile>
